<svg width="128" height="128" viewBox="32 32 64 64" xmlns="http://www.w3.org/2000/svg">
    <defs>
        <linearGradient id="controllerGradient" x1="0" y1="0" x2="1" y2="1">
            <stop offset="0%" stop-color="#7C4DFF"></stop>
            <stop offset="50%" stop-color="#00E5FF"></stop>
            <stop offset="100%" stop-color="#1DE9B6"></stop>
        </linearGradient>
    </defs>

    <!-- Game controller body -->
    <path d="M32 54
           C32 42, 48 40, 64 40
           C80 40, 96 42, 96 54
           V70
           C96 80, 88 88, 78 88
           C72 88, 68 82, 64 82
           C60 82, 56 88, 50 88
           C40 88, 32 80, 32 70
           Z" fill="url(#controllerGradient)"></path>

    <!-- D-pad (white) -->
    <rect x="44" y="58" width="6" height="14" rx="1" fill="#FFFFFF"></rect>
    <rect x="40" y="62" width="14" height="6" rx="1" fill="#FFFFFF"></rect>

    <!-- Buttons (white) -->
    <circle cx="78" cy="60" r="3" fill="#FFFFFF"></circle>
    <circle cx="84" cy="66" r="3" fill="#FFFFFF"></circle>
    <circle cx="72" cy="66" r="3" fill="#FFFFFF"></circle>
    <circle cx="78" cy="72" r="3" fill="#FFFFFF"></circle>
</svg>
